<?xml version="1.0" encoding="utf-8"?>
<!-- Generator: Adobe Illustrator 24.1.0, SVG Export Plug-In . SVG Version: 6.00 Build 0)  -->
<svg version="1.1" id="Layer_1" xmlns="http://www.w3.org/2000/svg" xmlns:xlink="http://www.w3.org/1999/xlink" x="0px" y="0px"
	 viewBox="0 0 640 640" style="enable-background:new 0 0 640 640;" xml:space="preserve">
<style type="text/css">
	.st0{fill:#231F20;stroke:#000000;stroke-miterlimit:10;}
	.st1{fill:#231F20;stroke:#000000;stroke-width:1;stroke-miterlimit:9.9999;}
	.st2{fill:#231F20;stroke:#000000;stroke-width:1;stroke-miterlimit:10.0001;}
	.st3{fill:#141516;}
	.st4{fill:none;stroke:#000000;stroke-width:12;stroke-miterlimit:10;}
</style>
<g>
	<path class="st0" d="M391.6,302.95l-106.64-42.39l-24.61-31.44l3.42-9.58l-11.28-5.81l-7.52,17.09l31.46,38.8l5.62,149.32
		l-17.19,12.02v17.76l31.5-19.47l-2.65-78.11l22.36,23.68l36.39-8.24l11.33,13.39l14.41-3.78l-19.02-24.56l-37.73,7.53l-21.26-21
		l41.67-42.04l-12.3-5l51.12,20.7l3.77,13.68l10.58-7.52L391.6,302.95z M292.87,326.92l-1.74-51.34l37.31,15.11L292.87,326.92z"/>
	<path class="st0" d="M317.42,239.15c-5.14,7.25-1.82,12.82,0.91,15.69c1.64,1.72,3.8,2.92,6.16,3.21c2.52,0.32,5.46-0.32,5.55-4.96
		c0.05-2.35-2.27-4.07-4.48-3.29c-0.03,0.02-0.06,0.03-0.1,0.03l-4.28-7.84c0,0,10.96-5.11,16.52,4.96c0,0,5.14,8.87-1.76,15.96
		c-3.26,3.34-7.95,4.82-12.56,4.21c-6.18-0.8-15.21-4.12-17.65-16.44c-1.18-5.98,0.32-12.24,4.39-16.79
		c2.97-3.3,7.58-6.21,14.71-6.38c4.58-0.11,9.1,1.04,13.17,3.16l21.93,11.48l-8.86,5.28C351.08,247.43,325.08,228.32,317.42,239.15z
		"/>
	
		<rect x="375.03" y="346.97" transform="matrix(0.7672 -0.6414 0.6414 0.7672 -144.9272 325.6109)" class="st1" width="2.15" height="30.98"/>
	
		<rect x="268.3" y="445.39" transform="matrix(0.7979 -0.6028 0.6028 0.7979 -211.7691 261.3002)" class="st2" width="30.98" height="2.15"/>
</g>
</svg>
