<?xml version="1.0" encoding="utf-8"?>
<!-- Generator: Adobe Illustrator 24.1.0, SVG Export Plug-In . SVG Version: 6.00 Build 0)  -->
<svg version="1.1" id="Layer_1" xmlns="http://www.w3.org/2000/svg" xmlns:xlink="http://www.w3.org/1999/xlink" x="0px" y="0px"
	 viewBox="0 0 640 640" style="enable-background:new 0 0 640 640;" xml:space="preserve">
<style type="text/css">
	.st0{fill:#231F20;}
	.st1{fill:#050505;}
	.st2{fill:#141516;}
</style>
<g>
	<g>
		<g>
			<path class="st0" d="M444.92,317.29c-20.92,0-37.95-22.91-37.95-51.08c0-28.16,17.02-51.08,37.95-51.08
				c20.92,0,37.95,22.91,37.95,51.08C482.86,294.38,465.84,317.29,444.92,317.29z M444.92,219.25c-18.65,0-33.83,21.07-33.83,46.96
				c0,25.9,15.18,46.96,33.83,46.96c18.66,0,33.83-21.07,33.83-46.96C478.75,240.32,463.57,219.25,444.92,219.25z"/>
		</g>
		<g>
			<path class="st1" d="M535.86,406.3H356.53l3-18.82c3.74-23.47,19.47-43.28,41.48-52.25l0,0l17.53-7.14l27.65,57.27l27.65-57.27
				l17.53,7.14l0,0c22.01,8.97,37.74,28.78,41.48,52.25L535.86,406.3z"/>
		</g>
		<g>
			<polygon class="st0" points="418.85,331.53 417.6,328.58 427.26,324.48 430.84,310.45 433.94,311.24 429.97,326.81 			"/>
		</g>
		<g>
			<polygon class="st0" points="473.36,331.53 462.24,326.81 458.27,311.24 461.37,310.45 464.95,324.48 474.61,328.58 			"/>
		</g>
		<g>
			<path class="st1" d="M407.81,263.74c0,0-0.34-39.25,26.9-31.29c0,0,12.16,3.15,25.15-1.15c0,0,20.96,1.57,18.86,33.85
				c0,0,7.55-15.93-0.42-47.79c-7.39-29.55-59.86-18.71-65.75-3.6c-1.14,2.91-2.44,5.76-3.83,8.56
				C405.69,228.45,401.61,243.8,407.81,263.74z"/>
		</g>
		<g>
			<path class="st1" d="M411.48,218.91c0,0-20,25.78-1.78,82.46"/>
		</g>
		<g>
			<path class="st1" d="M477.6,217.2c0,0,14.94,38.45,4.53,84.17"/>
		</g>
		<g>
			<path class="st0" d="M447.86,332.21c-2.45,0-4.99-0.28-7.62-0.84c-7.02-1.49-12.1-4.42-12.32-4.55l1.38-2.37
				c0.19,0.11,19.48,11.09,33.45,0.11l1.7,2.16C459.82,330.36,454.18,332.21,447.86,332.21z"/>
		</g>
		<g>
			<path class="st1" d="M402.09,260.14c0,0-5.36,10.2-1.66,24.99c2.62,10.49-1.26,19.03-3.75,23.12c-2.01,3.31-3.06,7.14-2.77,11
				c0.24,3.24,1.37,6.68,4.57,8.85c4.68,3.18,5.89,9.1,6.14,13.13c0.23,3.64,3.37,6.52,7.01,6.25c2-0.15,3.86-1.23,4.69-4.28
				c2.22-8.14,3.79-15.16,1.9-21.08s-1.59-9.58,0.85-11.26c0.61-0.42,1.09-1.07,1.47-1.81c1.3-2.55,1.12-5.6-0.28-8.09
				C415.49,292.51,401.96,267.85,402.09,260.14z"/>
		</g>
		<g>
			<circle class="st1" cx="446.11" cy="334.45" r="3.6"/>
		</g>
	</g>
	<g>
		<g>
			<rect x="44.93" y="406.18" width="550.14" height="3.2"/>
		</g>
		<g>
			<rect x="74.81" y="407.78" width="3.2" height="33.52"/>
		</g>
		<g>
			<rect x="566.34" y="407.78" width="3.2" height="33.52"/>
		</g>
	</g>
	<g>
		<g>
			<rect x="120.89" y="389.04" class="st2" width="154.84" height="15.66"/>
			<path d="M277.34,406.3H119.29v-18.86h158.04v18.86H277.34z M122.49,403.1h151.64v-12.46H122.49V403.1z"/>
		</g>
		<g>
			<rect x="135.03" y="362.61" class="st2" width="154.84" height="15.66"/>
			<path d="M291.48,379.87H133.44v-18.86h158.04L291.48,379.87L291.48,379.87z M136.63,376.67h151.64v-12.46H136.63V376.67z"/>
		</g>
		<g>
			<rect x="106.72" y="337.62" class="st2" width="154.84" height="15.66"/>
			<path d="M263.16,354.88H105.12v-18.86h158.04V354.88z M108.32,351.68h151.64v-12.46H108.32V351.68z"/>
		</g>
		<g>
			<rect x="135.03" y="314.37" class="st2" width="154.84" height="15.66"/>
			<path d="M291.48,331.63H133.44v-18.86h158.04L291.48,331.63L291.48,331.63z M136.63,328.43h151.64v-12.46H136.63V328.43z"/>
		</g>
	</g>
</g>
</svg>
