<?xml version="1.0" encoding="utf-8"?>
<!-- Generator: Adobe Illustrator 24.1.0, SVG Export Plug-In . SVG Version: 6.00 Build 0)  -->
<svg version="1.1" id="Layer_1" xmlns="http://www.w3.org/2000/svg" xmlns:xlink="http://www.w3.org/1999/xlink" x="0px" y="0px"
	 viewBox="0 0 640 640" style="enable-background:new 0 0 640 640;" xml:space="preserve">
<style type="text/css">
	.st0{fill:#231F20;stroke:#000000;stroke-miterlimit:10;}
	.st1{fill:#231F20;stroke:#000000;stroke-width:1;stroke-miterlimit:9.9999;}
	.st2{fill:#231F20;stroke:#000000;stroke-width:1;stroke-miterlimit:10.0001;}
	.st3{fill:#141516;}
	.st4{fill:none;stroke:#000000;stroke-width:12;stroke-miterlimit:10;}
</style>
<g>
	<path class="st0" d="M306.12,316.72l8.75,9.44c2.45,2.64,6.62,2.67,9.11,0.06l86.77-91.11c2.04-2.14,1.93-5.53-0.23-7.54l0,0
		c-1.63-1.52-4.04-1.85-6.02-0.83l-12.94,6.62c-2.78,1.42-5.37,3.2-7.71,5.29l-77.31,69.18
		C303.93,310.14,303.75,314.15,306.12,316.72z"/>
	<path class="st0" d="M277.05,272.41c14.87,1.42,38.69-3.01,29.52-49.27c-0.4-2,1.84-3.47,3.52-2.32
		c5.81,3.97,15.19,13.62,15.61,34.68c0.26,12.77-6.42,24.81-17.67,30.87c-9.03,4.86-21.04,6-34.19-7.04
		C271.14,276.66,273.27,272.05,277.05,272.41z"/>
	<path class="st0" d="M245.21,277.43l5.81,13.41c0.75,1.73,0.51,3.73-0.63,5.23c-3.81,5.03-11.28,16.32-1.05,15.98
		c11.04-0.37,45.01-14.31,55.61-18.77c1.74-0.73,3.74,0.15,4.38,1.92l0,0c0.4,1.12,0.17,2.38-0.61,3.28
		c-5,5.74-24.33,26.58-47.98,34.37c-9.53,3.14-20-0.44-25.52-8.82c-3.69-5.61-6.96-13.29-7.39-23.15
		c-0.34-7.74,1.69-15.45,6.17-21.78c0.82-1.15,1.72-2.27,2.71-3.29C239.28,273.17,243.74,274.04,245.21,277.43z"/>
	<path class="st0" d="M288.33,329.31h12.23c2.73,0,4.91,2.25,4.83,4.98l-3.5,115.48c-0.06,1.82-0.8,3.54-2.09,4.82l0,0
		c-2.89,2.87-7.59,2.74-10.3-0.29l-2.65-2.95c-1.15-1.28-1.79-2.93-1.82-4.65l-1.53-112.49
		C283.46,331.51,285.64,329.31,288.33,329.31z"/>
	<path class="st0" d="M274.9,255.8v-11.35c0-7.64-5.94-13.93-13.57-14.45c-1.45-0.1-2.91-0.23-4.33-0.41
		c-10.92-1.39-19.32,9.72-14.83,19.77c0.11,0.24,0.22,0.48,0.34,0.73c0,0,2.17,3.44,5.73,4.78c3.29,1.23,6.49,2.69,9.49,4.52
		c3.22,1.97,7.41,3.81,11.31,3.27C272.43,262.2,274.9,259.22,274.9,255.8z"/>
</g>
</svg>
