<?xml version="1.0" encoding="utf-8"?>
<!-- Generator: Adobe Illustrator 24.1.0, SVG Export Plug-In . SVG Version: 6.00 Build 0)  -->
<svg version="1.1" id="Layer_1" xmlns="http://www.w3.org/2000/svg" xmlns:xlink="http://www.w3.org/1999/xlink" x="0px" y="0px"
	 viewBox="0 0 640 640" style="enable-background:new 0 0 640 640;" xml:space="preserve">
<style type="text/css">
	.st0{fill:#231F20;stroke:#000000;stroke-miterlimit:10;}
	.st1{fill:#231F20;stroke:#000000;stroke-width:1;stroke-miterlimit:9.9999;}
	.st2{fill:#231F20;stroke:#000000;stroke-width:1;stroke-miterlimit:10.0001;}
	.st3{fill:#141516;}
	.st4{fill:none;stroke:#000000;stroke-width:12;stroke-miterlimit:10;}
</style>
<g>
	<path class="st0" d="M290.13,343.76L290.13,343.76c0-4.35,3.7-7.76,8.04-7.42c18.86,1.48,64.84,10.37,70.89,61.79l2.65,39.47
		c0.29,4.3-3.12,7.95-7.43,7.95h-2.04c-4.28,0-7.67-3.61-7.42-7.89c1.32-22.44-0.12-85.11-57.44-86.46
		C293.34,351.11,290.13,347.79,290.13,343.76z"/>
	<circle class="st0" cx="396.21" cy="283.26" r="14.72"/>
	<path class="st0" d="M403.61,317.37c-0.47-3.23-3.11-5.72-6.34-6.14c-25.72-3.35-67.52-34.06-76.94-41.2
		c-1.01-0.77-1.14-2.24-0.28-3.17c13.8-14.87,4.37-24.15,4.37-24.15c-7.54-4.55-12.59-3.29-15.77-0.86
		c-2.93,2.25-4.42,5.92-4.07,9.59c0.55,5.89-0.46,8.93-0.46,8.93c-30.57,17.67-41.79,50.49-44.6,63.95
		c-2.33,11.18,2.78,44.14,4.58,55c0.44,2.67,0.54,5.39,0.22,8.07c-3.32,27.99-24.8,50.2-32.87,57.66c-2.54,2.35-3.15,6.2-1.29,9.12
		c4.82,7.56,17.17-4.53,17.17-4.53c48.3-53.9,35.46-85.39,30.1-105.94c-5.37-20.54,7.23-40.82,7.23-40.82
		c11.67,17.5,93.33,28.93,109.66,24.03C402.5,324.46,404.08,320.61,403.61,317.37z M298.77,293.68c-1.11-1.05-1.18-2.8-0.18-3.96
		l5.05-5.91c0.93-1.09,2.51-1.33,3.72-0.59l39.83,24.5C347.19,307.72,309.53,303.86,298.77,293.68z"/>
</g>
</svg>
