<?xml version="1.0" encoding="utf-8"?>
<!-- Generator: Adobe Illustrator 24.1.0, SVG Export Plug-In . SVG Version: 6.00 Build 0)  -->
<svg version="1.1" id="Layer_1" xmlns="http://www.w3.org/2000/svg" xmlns:xlink="http://www.w3.org/1999/xlink" x="0px" y="0px"
	 viewBox="0 0 640 640" style="enable-background:new 0 0 640 640;" xml:space="preserve">
<style type="text/css">
	.st0{fill:#231F20;stroke:#000000;stroke-miterlimit:10;}
	.st1{fill:#231F20;stroke:#000000;stroke-width:1;stroke-miterlimit:9.9999;}
	.st2{fill:#231F20;stroke:#000000;stroke-width:1;stroke-miterlimit:10.0001;}
	.st3{fill:#141516;}
	.st4{fill:none;stroke:#000000;stroke-width:12;stroke-miterlimit:10;}
</style>
<g>
	<circle class="st3" cx="349.65" cy="262.82" r="23.82"/>
	<path class="st3" d="M217.06,248.08h37.04c3.7,0,7.33,0.98,10.53,2.85l56.21,32.82c7.31,4.27,13.45,10.3,17.85,17.54l26.63,43.82
		c2.21,3.63,6.15,5.85,10.4,5.85h28.5l9.79-6.26c2.96-2.58,7.5-2.02,9.75,1.2l9.66,17.53h21.99c1.86,0,3.37,1.51,3.37,3.37l0,0
		c0,1.86-1.51,3.37-3.37,3.37h-20.45l-13.41,13.75c-2.54,2.6-6.69,2.66-9.31,0.14l-7.25-6.98l-40.7-1.23
		c-6.32-0.19-12.21-3.24-16.02-8.28l-23.58-31.17c-3.61-4.77-10.3-5.91-15.28-2.6l-13.73,9.12c-5.88,3.91-8.68,11.08-7,17.94
		l3.15,12.83c2.84,11.57-2.33,23.62-12.66,29.53L185.22,457v-31.04l42.07-25.05v-59.13c0-10.56,5.36-20.41,14.23-26.14l19.91-12.87
		c7.1-4.59,8.25-14.51,2.39-20.6l0,0c-6.52-6.78-15.52-10.61-24.93-10.61h-21.82c-6.48,0-11.74-5.25-11.74-11.74l0,0
		C205.33,253.34,210.58,248.08,217.06,248.08z"/>
</g>
</svg>
