<?xml version="1.0" encoding="utf-8"?>
<!-- Generator: Adobe Illustrator 24.1.0, SVG Export Plug-In . SVG Version: 6.00 Build 0)  -->
<svg version="1.1" id="Layer_1" xmlns="http://www.w3.org/2000/svg" xmlns:xlink="http://www.w3.org/1999/xlink" x="0px" y="0px"
	 viewBox="0 0 640 640" style="enable-background:new 0 0 640 640;" xml:space="preserve">
<style type="text/css">
	.st0{fill:#231F20;stroke:#000000;stroke-miterlimit:10;}
	.st1{fill:#231F20;stroke:#000000;stroke-width:1;stroke-miterlimit:9.9999;}
	.st2{fill:#231F20;stroke:#000000;stroke-width:1;stroke-miterlimit:10.0001;}
	.st3{fill:#141516;}
	.st4{fill:none;stroke:#000000;stroke-width:12;stroke-miterlimit:10;}
</style>
<g>
	<path class="st3" d="M419.53,264.17c0,5.08-4.13,9.19-9.21,9.19h-95.23v56.5h-43.23v-56.5h-42.17c-5.08,0-9.21-4.12-9.21-9.19
		c0-5.09,4.13-9.21,9.21-9.21h180.63c2.54,0,4.84,1.02,6.51,2.7C418.49,259.32,419.53,261.63,419.53,264.17z"/>
	<path class="st3" d="M271.86,345.41h22.76l-51.29,52.14v49.49c0,4.75-3.85,8.59-8.59,8.59l0,0c-4.75,0-8.59-3.85-8.59-8.59v-57.4
		L271.86,345.41z"/>
	<path class="st3" d="M294.61,345.41h25.4l95.87,95.87c3.36,3.36,3.36,8.8,0,12.15l-0.69,0.69c-3.36,3.36-8.81,3.36-12.16-0.01
		L294.61,345.41z"/>
	<circle class="st3" cx="277.64" cy="234.11" r="15.81"/>
	<path class="st4" d="M393.6,187.36c0,0,49.47,111.64-41.59,207.07"/>
</g>
</svg>
