<?xml version="1.0" encoding="utf-8"?>
<!-- Generator: Adobe Illustrator 24.1.0, SVG Export Plug-In . SVG Version: 6.00 Build 0)  -->
<svg version="1.1" id="Layer_1" xmlns="http://www.w3.org/2000/svg" xmlns:xlink="http://www.w3.org/1999/xlink" x="0px" y="0px"
	 viewBox="0 0 640 640" style="enable-background:new 0 0 640 640;" xml:space="preserve">
<style type="text/css">
	.st0{fill:#231F20;stroke:#000000;stroke-miterlimit:10;}
	.st1{fill:#231F20;stroke:#000000;stroke-width:1;stroke-miterlimit:9.9999;}
	.st2{fill:#231F20;stroke:#000000;stroke-width:1;stroke-miterlimit:10.0001;}
	.st3{fill:#141516;}
	.st4{fill:none;stroke:#000000;stroke-width:12;stroke-miterlimit:10;}
</style>
<path class="st3" d="M152.77,449.46c13.84-28.91,99.3-56,99.3-56c4.06-93.35,64.09-99.46,82.14-126.56
	c-20.94-43.7-70.27,11.57-84.42,37.53c-4.85,8.9-12.17,16.24-21.14,20.96c-17.35,9.15-17.89-3.5-17.89-3.5
	c9.41-0.41,17.74-7.2,23.87-14.16c5.58-6.34,9.91-13.66,13.05-21.49c37.96-94.39,103.02-42.1,121.67-33.84
	c23.89-15.68,36.73-8.67,35.84,0.76c-0.49,5.2-5.03,9.09-10.25,9.07c-8.69-0.03-10.68,4.82-10.7,9.21
	c-0.02,3.61,1.36,7.09,3.72,9.83c53.96,63.04,77.34,0.56,98.93,11.12c2.32,5.53-7.84,15.05-20.37,23.62
	c-22.49,15.39-52.36,14.35-73.79-2.49c-14.38-11.3-28.13-19.93-52.42-4.7c-3.58,2.25-7.29,4.28-11.05,6.21
	c-7.67,3.92-6.36,8.29-3.57,11.46c2.43,2.76,5.84,4.44,9.49,4.94c38.89,5.27,66.6,27.07,77.57,37.13c3.93,3.6,5.65,9.07,4.37,14.25
	c-8.27,33.22-73.76,8.16-112.66,20.76c-2.89,0.94-4.94-2.85-2.52-4.7c25.27-19.34,96.92-21.07,96.92-21.07
	c-16.49-24.72-106.76-26.59-106.76-26.59s-29.6,52.44-29.61,52.44c-21.3,18.65-74.21,31-96.77,51.04
	c-4.75,4.22-12.29,1.23-12.94-5.1L152.77,449.46z"/>
</svg>
