<?xml version="1.0" encoding="utf-8"?>
<!-- Generator: Adobe Illustrator 24.1.0, SVG Export Plug-In . SVG Version: 6.00 Build 0)  -->
<svg version="1.1" id="Layer_1" xmlns="http://www.w3.org/2000/svg" xmlns:xlink="http://www.w3.org/1999/xlink" x="0px" y="0px"
	 viewBox="0 0 640 640" style="enable-background:new 0 0 640 640;" xml:space="preserve">
<style type="text/css">
	.st0{fill:#151617;}
	.st1{fill:#151617;stroke:#000000;stroke-width:0.5;stroke-miterlimit:10;}
	.st2{fill:#141516;}
</style>
<g>
	<circle class="st0" cx="321.26" cy="202.23" r="24.27"/>
	<path class="st0" d="M359,291.39c4.21,2.91,4.16,9.29-0.09,12.15c-3.05,2.05-7.13,2.53-10.78,0.68l-16.48-8.31
		c-4.78-20.85,1.78-21.9,1.78-21.9l25.51,17.33C358.96,291.36,358.98,291.37,359,291.39z"/>
	<path class="st0" d="M396.2,428.51c-2.41,5.63-10.5,5.71-12.94,0.1c-0.02-0.02-0.02-0.06-0.04-0.1l-27.3-63.8l-42.54-32.68h-4.22
		c-49.29-6.25-13.45-50.26-13.45-50.26l0.06,0.08l0.1,0.14l0.12,0.16l-0.17-0.37l2.95-22.35l-28.7,11l-3.22,38.03
		c-0.49,5.8-0.02,10.17-5.84,9.88c-5.78-0.29-10.25-5.1-10.25-10.79c0-0.31,0-0.62,0.04-0.93l3.65-42.87
		c0.39-4.46,2.85-8.5,6.66-10.91l38.29-15.06c6-2.16,11.04-3.96,16.57-2.45c0,0,0.41,0.12,1.13,0.37c0.14,0.04,0.31,0.1,0.49,0.16
		c0.04,0.02,0.06,0.04,0.1,0.04c7.59,2.68,36.1,13.65,16.95,32.69c-0.25,0.27-0.5,0.5-0.76,0.76c-4.19,3.75-9.3,4.73-5.58,24
		c2.5,13.06,9.97,24.41,9.97,24.41l26.64,26.95c3.57,3.61,6.35,7.92,8.15,12.65l23.38,61.42
		C397.65,422.05,397.48,425.52,396.2,428.51z"/>
	<g>
		<path class="st0" d="M311.13,336.92l-24.88,38.73l-25.34,52.33c-2.19,4.54-8.31,6.5-13.2,4.23c-2.99-1.38-4.77-4-4.95-6.81
			c-0.08-1.24,0.16-2.54,0.76-3.78l23.83-50.51l0.02-0.02l13.53-46.94l0.02-0.02l0.39-1.36c0.02,0.02,0.08,0.06,0.14,0.14
			c0.04,0.04,0.1,0.08,0.16,0.14c0.8,0.82,3.28,3.22,7.06,5.98c0.04,0.04,0.1,0.08,0.16,0.12
			C294.11,333.02,301.91,335.06,311.13,336.92z"/>
	</g>
	<g>
		<polygon class="st0" points="192.94,410.55 220.81,410.55 202.86,462.04 160.82,462.04 		"/>
		<polygon class="st0" points="304.88,410.55 333.23,410.55 341.73,462.04 298.27,462.04 		"/>
		<polygon class="st0" points="417.78,410.55 444.7,410.55 479.18,462.04 435.25,462.04 		"/>
	</g>
</g>
</svg>
