<?xml version="1.0" encoding="utf-8"?>
<!-- Generator: Adobe Illustrator 24.1.0, SVG Export Plug-In . SVG Version: 6.00 Build 0)  -->
<svg version="1.1" id="Layer_1" xmlns="http://www.w3.org/2000/svg" xmlns:xlink="http://www.w3.org/1999/xlink" x="0px" y="0px"
	 viewBox="0 0 640 640" style="enable-background:new 0 0 640 640;" xml:space="preserve">
<style type="text/css">
	.st0{fill:#151617;}
	.st1{fill:#151617;stroke:#000000;stroke-width:0.5;stroke-miterlimit:10;}
	.st2{fill:#141516;}
</style>
<g>
	<path class="st0" d="M390.28,432.71c-1.38,0.47-2.79,0.7-4.19,0.7c-5.08,0-9.86-2.99-11.95-7.9l-27.32-63.82l-31.49-28.84
		l-0.51-0.33l-0.02-0.01c-0.86-0.22-35.19-9.55-18.22-42.37l4.04-41.74l-28.68,19l-3.22,38.03c-0.49,5.8-5.51,10.17-11.33,9.88
		c-5.8-0.29-10.25-5.08-10.25-10.77c0-0.33,0.02-0.64,0.04-0.95l3.65-42.87c0.39-4.46,2.85-8.52,6.66-10.91l48.11-27.85l14.03,5.61
		c11.78,4.72,19.5,16.13,19.5,28.82l-14.08,41.53l41.7,43.76c3.57,3.61,6.35,7.92,8.15,12.65l23.38,61.42
		C400.9,422.64,397.27,430.36,390.28,432.71z"/>
	<path class="st0" d="M312.66,336.54l-46.05,89.63c-3.9,7.23-13.25,9.43-19.96,4.69c-3.75-2.65-5.79-6.88-5.79-11.2
		c0-2.26,0.56-4.55,1.73-6.65l47.87-87.76l1.73-3.05C292.33,324.31,297.68,331.51,312.66,336.54z"/>
	<path class="st0" d="M377.13,292.48c0,1.69-0.37,3.4-1.13,5.01c-3.15,6.63-11.56,8.74-17.47,4.38l-16.6-12.24l-5.77-3.9l-2.5-1.89
		l8.28-23.96l30.61,23.3C375.5,285.45,377.13,288.92,377.13,292.48z"/>
	<circle class="st0" cx="328.95" cy="197.64" r="19.68"/>
	<g>
		<polygon class="st0" points="192.94,410.55 220.81,410.55 202.86,462.04 160.82,462.04 		"/>
		<polygon class="st0" points="304.88,410.55 333.23,410.55 341.73,462.04 298.27,462.04 		"/>
		<polygon class="st0" points="417.78,410.55 444.7,410.55 479.18,462.04 435.25,462.04 		"/>
	</g>
</g>
</svg>
