<?xml version="1.0" encoding="utf-8"?>
<!-- Generator: Adobe Illustrator 24.1.0, SVG Export Plug-In . SVG Version: 6.00 Build 0)  -->
<svg version="1.1" id="Layer_1" xmlns="http://www.w3.org/2000/svg" xmlns:xlink="http://www.w3.org/1999/xlink" x="0px" y="0px"
	 viewBox="0 0 640 640" style="enable-background:new 0 0 640 640;" xml:space="preserve">
<style type="text/css">
	.st0{fill:#151617;}
	.st1{fill:#151617;stroke:#000000;stroke-width:0.5;stroke-miterlimit:10;}
	.st2{fill:#141516;}
</style>
<g>
	<g>
		<path class="st0" d="M394.26,433.04c-3.13-0.53-4.99-2.01-6.29-5.07l-24.3-63.82l-46.7-34.66c0,0-42.96-8.56-15.45-48.26v-0.02
			l2.95-27.33l-30.7,14l-3.2,39.01c-0.5,5.82-5.51,10.19-11.33,9.9c-5.8-0.31-8.27-4.1-8.27-9.79c0-0.31,0.02-0.62,0.04-0.93
			l3.67-42.87c0.39-4.46,2.85-8.52,6.66-10.91l49.09-20.85l16.44,6.58c9.13,3.65,15.49,9.55,16.83,18.58
			c0.01,2.42-1.57,3.81-3.13,5.2c-4.19,3.73-10.3,11.73-6.58,31c2.52,13.06,6.48,20.16,9.97,24.04l26.64,27.32
			c3.57,3.61,6.35,7.92,8.15,12.65l23.38,61.42C404.57,424.68,401.03,432.1,394.26,433.04z"/>
		<circle class="st0" cx="326.12" cy="201.05" r="23.1"/>
		<path class="st0" d="M363.86,288.39c4.21,2.91,4.16,9.29-0.09,12.15c-3.05,2.05-7.13,2.53-10.78,0.68l-16.48-8.31
			c-4.78-20.85,1.78-21.9,1.78-21.9l25.51,17.33C363.82,288.36,363.84,288.37,363.86,288.39z"/>
		<path class="st0" d="M314.21,333.14l-29.26,44.05l-27.07,51.31c-2.68,4.64-9.31,6.23-14.3,3.43c-3.05-1.71-4.73-4.64-4.7-7.63
			c0.02-1.32,0.39-2.68,1.13-3.94l29.32-51.54v-0.02l20.66-54.56c0,0,1.07,1.98,3.45,4.73c3.1,3.63,8.46,8.64,16.59,12.44
			C311.36,332.01,312.76,332.6,314.21,333.14z"/>
	</g>
	<g>
		<polygon class="st0" points="192.94,410.55 220.81,410.55 202.86,462.04 160.82,462.04 		"/>
		<polygon class="st0" points="304.88,410.55 333.23,410.55 341.73,462.04 298.27,462.04 		"/>
		<polygon class="st0" points="417.78,410.55 444.7,410.55 479.18,462.04 435.25,462.04 		"/>
	</g>
</g>
</svg>
