<?xml version="1.0" encoding="utf-8"?>
<!-- Generator: Adobe Illustrator 24.1.0, SVG Export Plug-In . SVG Version: 6.00 Build 0)  -->
<svg version="1.1" id="Layer_1" xmlns="http://www.w3.org/2000/svg" xmlns:xlink="http://www.w3.org/1999/xlink" x="0px" y="0px"
	 viewBox="0 0 640 640" style="enable-background:new 0 0 640 640;" xml:space="preserve">
<style type="text/css">
	.st0{fill:#151617;}
	.st1{fill:#151617;stroke:#000000;stroke-width:0.5;stroke-miterlimit:10;}
	.st2{fill:#141516;}
</style>
<g>
	<path class="st0" d="M311.09,336.54l-44.05,89.63c-3.9,7.23-13.25,9.43-19.96,4.69c-3.75-2.65-5.79-6.88-5.79-11.2
		c0-2.26,0.56-4.55,1.73-6.65l46.87-87.76l1.73-3.05C291.77,324.31,296.11,331.51,311.09,336.54z"/>
	<path class="st0" d="M389.84,432.56c-1.38,0.47-2.79,0.7-4.19,0.7c-5.08,0-9.88-2.99-11.97-7.9l-27.3-63.82l-31.77-29.08
		l-0.23-0.08c0,0-35.41-9.14-18.26-42.34l6.06-37.78l-30.7,15l-3.2,38.03c-0.5,5.8-5.51,10.17-11.33,9.88
		c-5.8-0.29-10.27-5.1-10.27-10.81c0-0.31,0.02-0.6,0.04-0.91l3.67-42.87c0.39-4.46,2.83-8.52,6.66-10.91l49.09-24.85l14.03,5.61
		c11.78,4.72,19.5,13.13,19.5,25.82c-5.38,8.89-7.99,15.8-7.99,25.68c0,13.45,4.87,26.8,14.38,37.28l20.26,22.33
		c3.57,3.61,6.35,7.92,8.15,12.65l23.38,61.42C400.46,422.49,396.83,430.19,389.84,432.56z"/>
	<path class="st0" d="M339.2,268.8c0,0-6.57,6.53-1.78,27.38l16.48,8.31c6.46,3.26,14.22-0.72,15.35-7.86l0,0
		c0.65-4.08-1.12-8.17-4.54-10.49L339.2,268.8z"/>
	<circle class="st0" cx="328.5" cy="198.79" r="20.83"/>
	<g>
		<polygon class="st0" points="192.94,410.55 220.81,410.55 202.86,462.04 160.82,462.04 		"/>
		<polygon class="st0" points="304.88,410.55 333.23,410.55 341.73,462.04 298.27,462.04 		"/>
		<polygon class="st0" points="417.78,410.55 444.7,410.55 479.18,462.04 435.25,462.04 		"/>
	</g>
</g>
</svg>
