<?xml version="1.0" encoding="utf-8"?>
<!-- Generator: Adobe Illustrator 24.1.0, SVG Export Plug-In . SVG Version: 6.00 Build 0)  -->
<svg version="1.1" id="Layer_1" xmlns="http://www.w3.org/2000/svg" xmlns:xlink="http://www.w3.org/1999/xlink" x="0px" y="0px"
	 viewBox="0 0 640 640" style="enable-background:new 0 0 640 640;" xml:space="preserve">
<style type="text/css">
	.st0{fill:#151617;}
	.st1{fill:#151617;stroke:#000000;stroke-width:0.5;stroke-miterlimit:10;}
	.st2{fill:#141516;}
</style>
<g>
	<path class="st0" d="M312.21,332.06l-48.77,94.12c-3.9,7.23-13.25,9.43-19.96,4.69c-3.75-2.65-5.79-6.88-5.79-11.2
		c0-2.26,0.56-4.55,1.73-6.65l48.87-87.76l4.46-7.53C292.88,319.83,297.23,327.03,312.21,332.06z"/>
	<path class="st0" d="M393.47,432.03c-1.4,0.47-2.79,0.7-4.19,0.7c-5.08,0-9.88-3.01-11.97-7.92l-27.3-63.82l-35.7-32.66
		c0,0-40.96-10.56-13.45-50.26v-0.02l2.95-27.33l-30.7,14l-3.2,39.01c-0.5,5.82-5.51,10.19-11.33,9.9c-5.8-0.31-8.27-4.1-8.27-9.79
		c0-0.31,0.02-0.62,0.04-0.93l3.67-42.87c0.39-4.46,2.85-8.52,6.66-10.91l49.09-20.85l16.44,6.58c9.13,3.65,15.49,9.55,16.83,18.58
		c0.01,2.42-1.57,3.81-3.13,5.2c-4.19,3.73-10.3,11.73-6.58,31c2.52,13.06,6.48,20.16,9.97,24.04L369.94,341
		c3.57,3.61,6.35,7.92,8.15,12.65l23.38,61.42C404.08,421.96,400.46,429.67,393.47,432.03z"/>
	<circle class="st0" cx="326.31" cy="199.96" r="22"/>
	<path class="st0" d="M338.48,264.88c0,0-6.57,6.53-1.78,27.38l16.48,8.31c6.46,3.26,14.22-0.72,15.35-7.86l0,0
		c0.65-4.08-1.12-8.17-4.54-10.49L338.48,264.88z"/>
	<g>
		<polygon class="st0" points="192.94,410.55 220.81,410.55 202.86,462.04 160.82,462.04 		"/>
		<polygon class="st0" points="304.88,410.55 333.23,410.55 341.73,462.04 298.27,462.04 		"/>
		<polygon class="st0" points="417.78,410.55 444.7,410.55 479.18,462.04 435.25,462.04 		"/>
	</g>
</g>
</svg>
