<?xml version="1.0" encoding="utf-8"?>
<!-- Generator: Adobe Illustrator 24.1.0, SVG Export Plug-In . SVG Version: 6.00 Build 0)  -->
<svg version="1.1" id="Layer_1" xmlns="http://www.w3.org/2000/svg" xmlns:xlink="http://www.w3.org/1999/xlink" x="0px" y="0px"
	 viewBox="0 0 640 640" style="enable-background:new 0 0 640 640;" xml:space="preserve">
<style type="text/css">
	.st0{fill:#231F20;}
	.st1{fill:#050505;}
	.st2{fill:#141516;}
</style>
<g>
	<g>
		<g>
			<path class="st0" d="M444.92,317.23c-20.92,0-37.95-22.91-37.95-51.08c0-28.16,17.02-51.08,37.95-51.08
				c20.92,0,37.95,22.91,37.95,51.08C482.86,294.32,465.84,317.23,444.92,317.23z M444.92,219.19c-18.65,0-33.83,21.07-33.83,46.96
				s15.18,46.96,33.83,46.96c18.66,0,33.83-21.07,33.83-46.96S463.57,219.19,444.92,219.19z"/>
		</g>
		<g>
			<path class="st1" d="M535.86,406.24H356.53l3-18.82c3.74-23.47,19.47-43.28,41.48-52.25l0,0l17.53-7.14l18.21,37.72
				c3.81,7.9,15.06,7.9,18.88,0l18.21-37.72l17.53,7.14l0,0c22.01,8.97,37.74,28.78,41.48,52.25L535.86,406.24z"/>
		</g>
		<g>
			<polygon class="st0" points="418.85,331.47 417.6,328.52 427.26,324.42 430.84,310.39 433.95,311.18 429.97,326.75 			"/>
		</g>
		<g>
			<polygon class="st0" points="473.37,331.47 462.24,326.75 458.27,311.18 461.37,310.39 464.95,324.42 474.62,328.52 			"/>
		</g>
		<g>
			<path class="st1" d="M407.81,263.68c0,0-0.34-39.25,26.9-31.29c0,0,12.16,3.15,25.15-1.15c0,0,20.96,1.57,18.86,33.85
				c0,0,7.55-15.93-0.42-47.79c-7.39-29.55-59.86-18.71-65.75-3.6c-1.14,2.91-2.44,5.76-3.83,8.56
				C405.69,228.4,401.62,243.74,407.81,263.68z"/>
		</g>
		<g>
			<path class="st1" d="M414.02,227.92c0,0-15.51,19.99-1.38,63.93"/>
		</g>
		<g>
			<path class="st1" d="M473.42,226.6c0,0,11.59,29.81,3.51,65.26"/>
		</g>
	</g>
	<g>
		<g>
			<rect x="44.93" y="406.24" width="550.14" height="3.2"/>
		</g>
		<g>
			<rect x="74.81" y="407.84" width="3.2" height="33.52"/>
		</g>
		<g>
			<rect x="566.34" y="407.84" width="3.2" height="33.52"/>
		</g>
	</g>
	<g>
		<g>
			<rect x="120.89" y="389.11" class="st2" width="154.84" height="15.66"/>
			<path d="M277.34,406.37H119.29v-18.86h158.04v18.86H277.34z M122.49,403.17h151.64v-12.46H122.49V403.17z"/>
		</g>
		<g>
			<rect x="135.03" y="362.68" class="st2" width="154.84" height="15.66"/>
			<path d="M291.48,379.94H133.44v-18.86h158.04L291.48,379.94L291.48,379.94z M136.63,376.74h151.64v-12.46H136.63V376.74z"/>
		</g>
		<g>
			<rect x="106.72" y="337.69" class="st2" width="154.84" height="15.66"/>
			<path d="M263.16,354.95H105.12v-18.86h158.04V354.95z M108.32,351.75h151.64v-12.46H108.32V351.75z"/>
		</g>
		<g>
			<rect x="135.03" y="314.44" class="st2" width="154.84" height="15.66"/>
			<path d="M291.48,331.7H133.44v-18.86h158.04L291.48,331.7L291.48,331.7z M136.63,328.5h151.64v-12.46H136.63V328.5z"/>
		</g>
	</g>
</g>
</svg>
